<svg width="149" height="153" viewBox="0 0 149 153" fill="none" xmlns="http://www.w3.org/2000/svg">
<path d="M24.9997 116.132L24.9816 116.137C24.1236 116.415 23.2837 116.688 22.4618 117.029C22.1295 117.166 21.9781 117.616 22.1107 118.038C22.2432 118.461 22.6539 118.688 22.9922 118.573C23.7838 118.265 24.5996 117.974 25.4274 117.728C25.7658 117.613 25.9413 117.181 25.8269 116.753C25.7245 116.299 25.3441 116.04 24.9997 116.132ZM28.6371 115.205C28.2927 115.298 28.1111 115.708 28.2014 116.117C28.2978 116.549 28.6721 116.859 29.0225 116.789C29.8502 116.615 30.7021 116.459 31.5842 116.343C31.9407 116.296 32.1645 115.899 32.0803 115.439C32.0021 115.002 31.6459 114.688 31.2713 114.74C30.3771 114.884 29.5011 115.022 28.6552 115.2C28.6552 115.2 28.6552 115.2 28.6371 115.205ZM34.9687 114.328C34.6606 114.411 34.4609 114.753 34.515 115.172C34.5751 115.614 34.9191 115.956 35.2816 115.931L35.5474 115.908C36.3328 115.866 37.1363 115.819 37.8914 115.81C38.2599 115.807 38.5139 115.45 38.4719 115.004C38.43 114.557 38.1041 114.211 37.7356 114.213C36.9442 114.232 36.1347 114.257 35.3131 114.308L35.0472 114.331C35.0472 114.331 35.005 114.318 34.9687 114.328ZM19.1139 118.6C19.0777 118.61 19.0414 118.62 18.9931 118.657C18.1953 119.087 17.4096 119.563 16.6662 120.051C16.3519 120.256 16.267 120.737 16.4721 121.139C16.6771 121.542 17.0878 121.697 17.4021 121.493C18.1093 121.014 18.8647 120.571 19.6443 120.145C19.9646 119.963 20.0737 119.5 19.9049 119.087C19.7421 118.697 19.4039 118.523 19.1139 118.6ZM41.4325 114.379C41.1606 114.452 40.9671 114.745 40.9668 115.106C40.9725 115.562 41.2863 115.936 41.6669 115.979C42.5609 116.052 43.4488 116.176 44.2884 116.337C44.6568 116.406 44.9651 116.107 44.9836 115.668C45.0021 115.23 44.7184 114.824 44.35 114.754C43.4742 114.603 42.544 114.467 41.6318 114.398C41.5594 114.345 41.4869 114.364 41.4325 114.379ZM13.7708 122.297C13.6983 122.316 13.6137 122.363 13.5533 122.428C12.846 123.051 12.187 123.709 11.5522 124.385C11.2983 124.67 11.2979 125.176 11.5634 125.515C11.829 125.853 12.2518 125.909 12.5057 125.624C13.1043 124.957 13.7512 124.326 14.4101 123.74C14.6942 123.495 14.7308 122.979 14.4774 122.614C14.3145 122.368 14.0246 122.229 13.7708 122.297ZM47.9014 115.682C47.6657 115.745 47.4904 115.96 47.4539 116.259C47.3932 116.685 47.6465 117.123 48.0089 117.243C48.8786 117.516 49.7301 117.866 50.5454 118.226C50.9017 118.396 51.2703 118.176 51.3552 117.768C51.4582 117.355 51.2351 116.885 50.8848 116.738C50.0212 116.342 49.1335 116.002 48.1974 115.699C48.1068 115.651 47.992 115.657 47.9014 115.682ZM9.34494 127.386C9.21806 127.42 9.10322 127.499 9.01855 127.618C8.48028 128.437 7.97217 129.296 7.50635 130.168C7.31276 130.533 7.42715 131.032 7.74712 131.284C8.0671 131.536 8.47793 131.474 8.6534 131.113C9.089 130.274 9.57289 129.47 10.087 128.705C10.3107 128.38 10.2507 127.866 9.93682 127.565C9.77384 127.392 9.54434 127.333 9.34494 127.386ZM54.091 118.697C53.9279 118.741 53.7707 118.88 53.686 119.071C53.5347 119.449 53.6854 119.939 54.0174 120.163C54.8023 120.7 55.5812 121.286 56.2935 121.914C56.6014 122.193 57.0122 122.131 57.2118 121.789C57.4115 121.446 57.3152 120.942 57.0073 120.663C56.2406 119.977 55.4135 119.355 54.5803 118.783C54.4173 118.682 54.2542 118.654 54.091 118.697ZM6.21685 133.766C6.03558 133.815 5.87841 133.953 5.80574 134.19C5.2002 136.063 5.04219 137.285 5.03611 137.335C4.97538 137.761 5.22876 138.199 5.60925 138.314C5.97162 138.434 6.31011 138.175 6.36482 137.726C6.37693 137.699 6.52278 136.576 7.06172 134.889C7.18888 134.494 7.02011 134.009 6.67593 133.812C6.52494 133.756 6.36186 133.727 6.21685 133.766ZM103.301 110.427C103.047 110.495 102.866 110.76 102.854 111.077C102.86 111.099 102.835 111.443 102.708 112.056C102.623 112.464 102.828 112.939 103.196 113.081C103.547 113.228 103.921 113.032 104 112.601C104.152 111.934 104.188 111.49 104.188 111.346C104.201 111.246 104.189 111.129 104.158 111.016C104.032 110.617 103.646 110.335 103.301 110.427ZM59.4516 123.694C59.3428 123.724 59.2582 123.77 59.1857 123.862C58.9317 124.147 58.9494 124.648 59.215 124.987C59.8366 125.784 60.428 126.613 60.9529 127.485C61.1882 127.855 61.6109 127.983 61.8951 127.738C62.1792 127.493 62.24 126.995 62.0047 126.625C61.4436 125.691 60.81 124.776 60.1401 123.944C59.9469 123.73 59.6872 123.631 59.4516 123.694ZM101.594 115.511C101.449 115.55 101.322 115.656 101.243 115.797C100.814 116.587 100.299 117.351 99.719 118.085C99.4892 118.388 99.5129 118.911 99.7906 119.223C100.068 119.534 100.503 119.562 100.733 119.259C101.356 118.466 101.894 117.647 102.366 116.798C102.566 116.455 102.469 115.951 102.143 115.677C101.986 115.526 101.775 115.462 101.594 115.511ZM97.3126 120.778C97.2401 120.797 97.1555 120.844 97.095 120.909C96.4482 121.467 95.7651 122.036 95.0277 122.547C94.7195 122.774 94.6527 123.25 94.8759 123.648C95.0991 124.046 95.5037 124.178 95.812 123.951C96.5796 123.408 97.2989 122.83 97.976 122.239C98.2601 121.994 98.2967 121.478 98.0433 121.112C97.8502 120.827 97.5664 120.71 97.3126 120.778ZM63.3308 130.413C63.2945 130.423 63.2582 130.433 63.2401 130.438C62.9138 130.597 62.7866 131.065 62.9554 131.478C63.3473 132.433 63.6969 133.448 63.968 134.459C64.0824 134.886 64.487 135.164 64.8253 135.049C65.1698 134.957 65.3634 134.519 65.2248 134.074C65.0983 133.602 64.9537 133.135 64.7909 132.673C64.8815 132.721 64.9842 132.741 65.0929 132.712C65.7877 132.622 66.5006 132.528 67.2196 132.456L67.7089 132.397C68.0654 132.349 68.3073 131.947 68.2291 131.51C68.1509 131.074 67.7887 130.737 67.4323 130.784L66.9429 130.843C66.23 130.938 65.5171 131.032 64.8163 131.1C64.6109 131.131 64.4537 131.269 64.369 131.46C64.2967 131.263 64.2303 131.088 64.1399 130.895C63.9831 130.528 63.6389 130.331 63.3308 130.413ZM58.4121 132.141C58.0677 132.233 57.8861 132.643 57.9824 133.075C58.0788 133.507 58.4652 133.789 58.8156 133.72C59.6555 133.519 60.5074 133.363 61.3653 133.229C61.7217 133.182 61.9395 132.762 61.8613 132.325C61.7831 131.888 61.4088 131.579 61.0524 131.626C60.1763 131.765 59.3123 131.948 58.4121 132.141C58.4302 132.136 58.4302 132.136 58.4121 132.141ZM54.8048 133.18C54.7867 133.185 54.7867 133.185 54.7686 133.19C53.9166 133.49 53.0887 133.808 52.2729 134.172C51.9405 134.309 51.7952 134.781 51.964 135.194C52.1147 135.611 52.5253 135.839 52.8517 135.679C53.6372 135.348 54.441 135.012 55.2627 134.744C55.6011 134.629 55.7706 134.174 55.638 133.752C55.5115 133.352 55.1492 133.088 54.8048 133.18ZM48.9974 135.868C48.943 135.883 48.9067 135.893 48.8584 135.93C48.0364 136.415 47.2809 136.931 46.5918 137.477C46.3017 137.699 46.2409 138.197 46.4581 138.573C46.6753 138.948 47.098 139.076 47.3882 138.854C48.047 138.34 48.7723 137.856 49.5399 137.386C49.8602 137.203 49.9633 136.718 49.7582 136.315C49.6074 135.97 49.2874 135.791 48.9974 135.868ZM91.9635 124.452C91.9272 124.462 91.891 124.472 91.8426 124.509C91.0932 124.902 90.3076 125.305 89.5099 125.664C89.1836 125.823 89.0322 126.274 89.2011 126.686C89.3699 127.099 89.7624 127.331 90.0887 127.171C90.9045 126.808 91.7264 126.395 92.4879 125.974C92.8082 125.792 92.9173 125.329 92.7485 124.916C92.5917 124.549 92.2535 124.374 91.9635 124.452ZM71.0754 130.314C70.7491 130.402 70.5555 130.767 70.6277 131.181C70.7059 131.618 71.062 131.932 71.4185 131.885C72.3731 131.749 73.2189 131.643 74.0345 131.497C74.391 131.45 74.6088 131.03 74.5306 130.593C74.4524 130.156 74.0781 129.847 73.7216 129.894C72.9181 130.013 72.0602 130.147 71.1237 130.277C71.1176 130.327 71.0935 130.309 71.0754 130.314ZM77.395 129.319C77.0687 129.407 76.863 129.799 76.9593 130.231C77.0556 130.663 77.43 130.973 77.7804 130.903C78.6685 130.737 79.5507 130.549 80.3724 130.353C80.7168 130.261 80.9164 129.846 80.8201 129.414C80.7238 128.982 80.3374 128.7 79.987 128.77C79.1653 128.966 78.3194 129.144 77.4312 129.31C77.4131 129.315 77.395 129.319 77.395 129.319ZM86.1018 127.011C86.0837 127.015 86.0837 127.015 86.0655 127.02C85.2679 127.306 84.4461 127.575 83.6002 127.825C83.2558 127.918 83.0621 128.355 83.2007 128.8C83.3393 129.245 83.7016 129.509 84.0581 129.389C84.9222 129.134 85.7802 128.856 86.5778 128.57C86.9162 128.455 87.0857 128 86.9531 127.578C86.7903 127.188 86.4281 126.923 86.1018 127.011ZM44.0284 140.164C43.9015 140.198 43.7867 140.276 43.702 140.396C43.3089 140.959 43.0487 141.51 42.8792 142.038C42.7277 142.56 42.6307 143.068 42.6001 143.606C42.5635 144.05 42.8471 144.456 43.2216 144.548C43.596 144.64 43.9044 144.341 43.9409 143.898C43.9715 143.504 44.0382 143.1 44.1473 142.71C44.2623 142.342 44.462 141.927 44.7704 141.483C44.9942 141.158 44.9342 140.644 44.6384 140.337C44.4573 140.169 44.2278 140.11 44.0284 140.164ZM65.2761 138.036C64.968 138.119 64.7865 138.457 64.8345 138.853C64.9545 139.954 65.002 141.001 64.953 141.906C64.9345 142.344 65.2181 142.75 65.5866 142.82C65.955 142.89 66.2633 142.591 66.2818 142.152C66.3188 141.13 66.2895 140.005 66.1394 138.793C66.0974 138.346 65.7534 138.005 65.3849 138.007C65.3668 138.012 65.3305 138.022 65.2761 138.036ZM44.464 147.227C44.3552 147.256 44.2585 147.33 44.1859 147.422C43.938 147.729 43.9739 148.226 44.2394 148.564C44.8973 149.352 45.7606 150.036 46.769 150.609C47.1132 150.806 47.4939 150.632 47.6211 150.236C47.7482 149.841 47.5613 149.361 47.2171 149.164C46.3536 148.696 45.6594 148.136 45.1162 147.486C44.9351 147.245 44.6815 147.169 44.464 147.227ZM64.3039 145.429C64.1589 145.468 64.0319 145.574 63.9412 145.743C63.5298 146.528 63.0218 147.242 62.387 147.846C62.1089 148.113 62.1085 148.619 62.362 148.985C62.6154 149.351 63.0382 149.406 63.3163 149.139C64.0176 148.421 64.6344 147.605 65.0943 146.711C65.2878 146.346 65.1734 145.846 64.8535 145.595C64.6905 145.422 64.4851 145.38 64.3039 145.429ZM50.5266 150.421C50.2729 150.489 50.0854 150.732 50.0791 151.071C50.0606 151.51 50.3261 151.921 50.7006 152.013C50.8455 152.047 50.9905 152.08 51.1536 152.109C51.9327 152.261 52.712 152.342 53.467 152.404C53.8416 152.425 54.1197 152.085 54.0959 151.634C54.0721 151.182 53.7582 150.808 53.3837 150.788C52.6709 150.738 51.9461 150.643 51.2152 150.526C51.0703 150.493 50.9313 150.482 50.7864 150.448C50.6898 150.378 50.5991 150.402 50.5266 150.421ZM59.4798 149.83C59.4617 149.834 59.4254 149.844 59.4073 149.849C58.9359 150.048 58.4404 150.229 57.9148 150.369C57.6247 150.447 57.3106 150.507 56.9964 150.567C56.6278 150.642 56.4282 151.057 56.5245 151.489C56.6208 151.921 56.9951 152.23 57.3455 152.16C57.6778 152.095 58.0101 152.03 58.3364 151.943C58.8983 151.792 59.4482 151.597 59.974 151.384C60.3063 151.247 60.4517 150.774 60.301 150.356C60.1563 149.962 59.8061 149.742 59.4798 149.83Z" fill="#D1CCE6"/>
<path d="M148.239 34.6324L0 0L104.199 57.6985L148.239 34.6324Z" fill="#848CC2"/>
<path d="M0 0L33.1632 101.105L86.6885 66.9382L0 0Z" fill="#848CC2"/>
<path d="M104.199 57.6984L98.0303 101.105L86.6885 66.9382L0 0L104.199 57.6984Z" fill="#5A5799"/>
<path d="M98.0237 101.101L65.8555 80.2282L86.6819 66.9336L98.0237 101.101Z" fill="#EA8461"/>
</svg>
